grf
version=1
nRows=9
nColumns=46
inDegrees=yes
endheader
time	ground_force_1_vx	ground_force_1_vy	ground_force_1_vz	ground_force_1_px	ground_force_1_py	ground_force_1_pz	ground_moment_1_mx	ground_moment_1_my	ground_moment_1_mz	ground_force_2_vx	ground_force_2_vy	ground_force_2_vz	ground_force_2_px	ground_force_2_py	ground_force_2_pz	ground_moment_2_mx	ground_moment_2_my	ground_moment_2_mz	ground_force_3_vx	ground_force_3_vy	ground_force_3_vz	ground_force_3_px	ground_force_3_py	ground_force_3_pz	ground_moment_3_mx	ground_moment_3_my	ground_moment_3_mz	ground_force_4_vx	ground_force_4_vy	ground_force_4_vz	ground_force_4_px	ground_force_4_py	ground_force_4_pz	ground_moment_4_mx	ground_moment_4_my	ground_moment_4_mz	ground_force_5_vx	ground_force_5_vy	ground_force_5_vz	ground_force_5_px	ground_force_5_py	ground_force_5_pz	ground_moment_5_mx	ground_moment_5_my	ground_moment_5_mz
1.325000	0.000000	0.000000	0.000000	0.000000	0.000000	0.000000	0.000000	0.000000	0.000000	0.000000	0.000000	0.000000	0.000000	0.000000	0.000000	0.000000	0.000000	0.000000	0.000000	0.000000	0.000000	0.000000	0.000000	0.000000	0.000000	0.000000	0.000000	4.859992	656.533886	-65.515927	0.175055	0.000000	-0.864456	-0.000000	12.225296	0.000000	-5.640904	686.446217	79.023102	0.215387	0.000000	-1.592541	-0.000000	-11.260034	-0.000000
1.325500	0.000000	0.000000	0.000000	0.000000	0.000000	0.000000	0.000000	0.000000	0.000000	0.000000	0.000000	0.000000	0.000000	0.000000	0.000000	0.000000	0.000000	0.000000	0.000000	0.000000	0.000000	0.000000	0.000000	0.000000	0.000000	0.000000	0.000000	4.842661	656.651683	-65.346075	0.175051	0.000000	-0.864485	-0.000000	12.234419	0.000000	-5.620437	686.751498	78.861063	0.215379	0.000000	-1.592506	-0.000000	-11.267785	-0.000000
1.326000	0.000000	0.000000	0.000000	0.000000	0.000000	0.000000	0.000000	0.000000	0.000000	0.000000	0.000000	0.000000	0.000000	0.000000	0.000000	0.000000	0.000000	0.000000	0.000000	0.000000	0.000000	0.000000	0.000000	0.000000	0.000000	0.000000	0.000000	4.827687	656.771632	-65.172553	0.175046	0.000000	-0.864516	-0.000000	12.243598	0.000000	-5.599375	687.055166	78.698006	0.215370	0.000000	-1.592471	-0.000000	-11.275528	-0.000000
1.326500	0.000000	0.000000	0.000000	0.000000	0.000000	0.000000	0.000000	0.000000	0.000000	0.000000	0.000000	0.000000	0.000000	0.000000	0.000000	0.000000	0.000000	0.000000	0.000000	0.000000	0.000000	0.000000	0.000000	0.000000	0.000000	0.000000	0.000000	4.815062	656.893804	-64.995330	0.175041	0.000000	-0.864547	-0.000000	12.252831	0.000000	-5.577787	687.357375	78.533994	0.215362	0.000000	-1.592437	-0.000000	-11.283271	-0.000000
1.327000	0.000000	0.000000	0.000000	0.000000	0.000000	0.000000	0.000000	0.000000	0.000000	0.000000	0.000000	0.000000	0.000000	0.000000	0.000000	0.000000	0.000000	0.000000	0.000000	0.000000	0.000000	0.000000	0.000000	0.000000	0.000000	0.000000	0.000000	4.804773	657.018282	-64.814386	0.175035	0.000000	-0.864579	-0.000000	12.262114	0.000000	-5.555741	687.658274	78.369091	0.215353	0.000000	-1.592402	-0.000000	-11.291022	-0.000000
1.327500	0.000000	0.000000	0.000000	0.000000	0.000000	0.000000	0.000000	0.000000	0.000000	0.000000	0.000000	0.000000	0.000000	0.000000	0.000000	0.000000	0.000000	0.000000	0.000000	0.000000	0.000000	0.000000	0.000000	0.000000	0.000000	0.000000	0.000000	4.796800	657.145164	-64.629713	0.175029	0.000000	-0.864611	-0.000000	12.271444	0.000000	-5.533306	687.957993	78.203367	0.215344	0.000000	-1.592367	-0.000000	-11.298787	-0.000000
1.328000	0.000000	0.000000	0.000000	0.000000	0.000000	0.000000	0.000000	0.000000	0.000000	0.000000	0.000000	0.000000	0.000000	0.000000	0.000000	0.000000	0.000000	0.000000	0.000000	0.000000	0.000000	0.000000	0.000000	0.000000	0.000000	0.000000	0.000000	4.791118	657.274565	-64.441312	0.175022	0.000000	-0.864645	-0.000000	12.280817	0.000000	-5.510547	688.256655	78.036897	0.215335	0.000000	-1.592333	-0.000000	-11.306572	-0.000000
1.328500	0.000000	0.000000	0.000000	0.000000	0.000000	0.000000	0.000000	0.000000	0.000000	0.000000	0.000000	0.000000	0.000000	0.000000	0.000000	0.000000	0.000000	0.000000	0.000000	0.000000	0.000000	0.000000	0.000000	0.000000	0.000000	0.000000	0.000000	4.787699	657.406607	-64.249195	0.175015	0.000000	-0.864679	-0.000000	12.290231	0.000000	-5.487532	688.554381	77.869765	0.215326	0.000000	-1.592298	-0.000000	-11.314379	-0.000000
1.329000	0.000000	0.000000	0.000000	0.000000	0.000000	0.000000	0.000000	0.000000	0.000000	0.000000	0.000000	0.000000	0.000000	0.000000	0.000000	0.000000	0.000000	0.000000	0.000000	0.000000	0.000000	0.000000	0.000000	0.000000	0.000000	0.000000	0.000000	4.786510	657.541407	-64.053380	0.175007	0.000000	-0.864714	-0.000000	12.299686	0.000000	-5.464328	688.851306	77.702065	0.215317	0.000000	-1.592264	-0.000000	-11.322213	-0.000000
